G04*
G04 #@! TF.GenerationSoftware,Altium Limited,Altium Designer,21.2.2 (38)*
G04*
G04 Layer_Color=255*
%FSLAX24Y24*%
%MOIN*%
G70*
G04*
G04 #@! TF.SameCoordinates,143DD886-8BEB-4202-99AC-BBB6EA89E434*
G04*
G04*
G04 #@! TF.FilePolarity,Positive*
G04*
G01*
G75*
%ADD22C,0.0965*%
%ADD23R,0.0965X0.0965*%
%ADD24C,0.1000*%
%ADD25C,0.0600*%
%ADD26R,0.0531X0.0531*%
%ADD27C,0.0531*%
%ADD28C,0.0610*%
%ADD29R,0.0610X0.0610*%
D22*
X8600Y9350D02*
D03*
Y7500D02*
D03*
X22500Y10150D02*
D03*
Y12000D02*
D03*
X12500Y10150D02*
D03*
Y12000D02*
D03*
X17500Y10150D02*
D03*
Y12000D02*
D03*
D23*
X8600Y5650D02*
D03*
X22500Y13850D02*
D03*
X12500D02*
D03*
X17500D02*
D03*
D24*
X26600Y6700D02*
D03*
Y5350D02*
D03*
Y3950D02*
D03*
Y2600D02*
D03*
X5300Y12250D02*
D03*
X6800D02*
D03*
X2750Y9600D02*
D03*
Y11100D02*
D03*
X6700Y2750D02*
D03*
X5200D02*
D03*
X26600Y8300D02*
D03*
Y9650D02*
D03*
Y11050D02*
D03*
Y12400D02*
D03*
X2750Y5500D02*
D03*
Y4000D02*
D03*
D25*
X28600Y6050D02*
D03*
Y3250D02*
D03*
X4800Y14000D02*
D03*
X7300D02*
D03*
X1000Y9100D02*
D03*
Y11600D02*
D03*
X7200Y1000D02*
D03*
X4700D02*
D03*
X1500Y1500D02*
D03*
Y13500D02*
D03*
X28500D02*
D03*
X28450Y1500D02*
D03*
X28600Y8950D02*
D03*
Y11750D02*
D03*
X1000Y6000D02*
D03*
Y3500D02*
D03*
D26*
X22500Y8772D02*
D03*
X12500D02*
D03*
X17500D02*
D03*
D27*
X22500Y5228D02*
D03*
X12500D02*
D03*
X17500D02*
D03*
D28*
X6478Y6900D02*
D03*
X2722D02*
D03*
X6478Y8200D02*
D03*
X2722D02*
D03*
X22500Y1000D02*
D03*
X12500D02*
D03*
X17500D02*
D03*
D29*
X22500Y2000D02*
D03*
X12500D02*
D03*
X17500D02*
D03*
M02*
