G04*
G04 #@! TF.GenerationSoftware,Altium Limited,Altium Designer,21.2.2 (38)*
G04*
G04 Layer_Color=32768*
%FSLAX24Y24*%
%MOIN*%
G70*
G04*
G04 #@! TF.SameCoordinates,143DD886-8BEB-4202-99AC-BBB6EA89E434*
G04*
G04*
G04 #@! TF.FilePolarity,Positive*
G04*
G01*
G75*
%ADD10C,0.0020*%
%ADD31C,0.0039*%
D10*
X23690Y1500D02*
X23686Y1600D01*
X23673Y1698D01*
X23653Y1796D01*
X23624Y1891D01*
X23587Y1984D01*
X23543Y2073D01*
X23491Y2159D01*
X23433Y2239D01*
X23367Y2315D01*
X23296Y2384D01*
X23219Y2448D01*
X23138Y2505D01*
X23051Y2555D01*
X22961Y2597D01*
X22868Y2632D01*
X22772Y2659D01*
X22674Y2677D01*
X22575Y2688D01*
X22475Y2690D01*
X22376Y2683D01*
X22277Y2669D01*
X22180Y2646D01*
X22085Y2615D01*
X21993Y2577D01*
X21905Y2531D01*
X21821Y2477D01*
X21741Y2417D01*
X21667Y2350D01*
X21599Y2278D01*
X21537Y2199D01*
X21482Y2116D01*
X21434Y2029D01*
X21394Y1938D01*
X21361Y1844D01*
X21336Y1747D01*
X21319Y1649D01*
X21311Y1550D01*
Y1450D01*
X21319Y1351D01*
X21336Y1253D01*
X21361Y1156D01*
X21394Y1062D01*
X21434Y971D01*
X21482Y884D01*
X21537Y801D01*
X21599Y722D01*
X21667Y650D01*
X21741Y583D01*
X21821Y523D01*
X21905Y469D01*
X21993Y423D01*
X22085Y385D01*
X22180Y354D01*
X22277Y331D01*
X22376Y317D01*
X22475Y310D01*
X22575Y312D01*
X22674Y323D01*
X22772Y341D01*
X22868Y368D01*
X22961Y403D01*
X23051Y445D01*
X23138Y495D01*
X23219Y552D01*
X23296Y616D01*
X23367Y685D01*
X23433Y761D01*
X23491Y841D01*
X23543Y927D01*
X23587Y1016D01*
X23624Y1109D01*
X23653Y1204D01*
X23673Y1302D01*
X23686Y1400D01*
X23690Y1500D01*
X13690Y1500D02*
X13686Y1600D01*
X13673Y1698D01*
X13653Y1796D01*
X13624Y1891D01*
X13587Y1984D01*
X13543Y2073D01*
X13491Y2159D01*
X13433Y2239D01*
X13367Y2315D01*
X13296Y2384D01*
X13219Y2448D01*
X13138Y2505D01*
X13051Y2555D01*
X12961Y2597D01*
X12868Y2632D01*
X12772Y2659D01*
X12674Y2677D01*
X12575Y2688D01*
X12475Y2690D01*
X12376Y2683D01*
X12277Y2669D01*
X12180Y2646D01*
X12085Y2615D01*
X11993Y2577D01*
X11905Y2531D01*
X11821Y2477D01*
X11741Y2417D01*
X11667Y2350D01*
X11599Y2278D01*
X11537Y2199D01*
X11482Y2116D01*
X11434Y2029D01*
X11394Y1938D01*
X11361Y1844D01*
X11336Y1747D01*
X11319Y1649D01*
X11311Y1550D01*
Y1450D01*
X11319Y1351D01*
X11336Y1253D01*
X11361Y1156D01*
X11394Y1062D01*
X11434Y971D01*
X11482Y884D01*
X11537Y801D01*
X11599Y722D01*
X11667Y650D01*
X11741Y583D01*
X11821Y523D01*
X11905Y469D01*
X11993Y423D01*
X12085Y385D01*
X12180Y354D01*
X12277Y331D01*
X12376Y317D01*
X12475Y310D01*
X12575Y312D01*
X12674Y323D01*
X12772Y341D01*
X12868Y368D01*
X12961Y403D01*
X13051Y445D01*
X13138Y495D01*
X13219Y552D01*
X13296Y616D01*
X13367Y685D01*
X13433Y761D01*
X13491Y841D01*
X13543Y927D01*
X13587Y1016D01*
X13624Y1109D01*
X13653Y1204D01*
X13673Y1302D01*
X13686Y1400D01*
X13690Y1500D01*
X18690Y1500D02*
X18686Y1600D01*
X18673Y1698D01*
X18653Y1796D01*
X18624Y1891D01*
X18587Y1984D01*
X18543Y2073D01*
X18491Y2159D01*
X18433Y2239D01*
X18367Y2315D01*
X18296Y2384D01*
X18219Y2448D01*
X18138Y2505D01*
X18051Y2555D01*
X17961Y2597D01*
X17868Y2632D01*
X17772Y2659D01*
X17674Y2677D01*
X17575Y2688D01*
X17475Y2690D01*
X17376Y2683D01*
X17277Y2669D01*
X17180Y2646D01*
X17085Y2615D01*
X16993Y2577D01*
X16905Y2531D01*
X16821Y2477D01*
X16741Y2417D01*
X16667Y2350D01*
X16599Y2278D01*
X16537Y2199D01*
X16482Y2116D01*
X16434Y2029D01*
X16394Y1938D01*
X16361Y1844D01*
X16336Y1747D01*
X16319Y1649D01*
X16311Y1550D01*
Y1450D01*
X16319Y1351D01*
X16336Y1253D01*
X16361Y1156D01*
X16394Y1062D01*
X16434Y971D01*
X16482Y884D01*
X16537Y801D01*
X16599Y722D01*
X16667Y650D01*
X16741Y583D01*
X16821Y523D01*
X16905Y469D01*
X16993Y423D01*
X17085Y385D01*
X17180Y354D01*
X17277Y331D01*
X17376Y317D01*
X17475Y310D01*
X17575Y312D01*
X17674Y323D01*
X17772Y341D01*
X17868Y368D01*
X17961Y403D01*
X18051Y445D01*
X18138Y495D01*
X18219Y552D01*
X18296Y616D01*
X18367Y685D01*
X18433Y761D01*
X18491Y841D01*
X18543Y927D01*
X18587Y1016D01*
X18624Y1109D01*
X18653Y1204D01*
X18673Y1302D01*
X18686Y1400D01*
X18690Y1500D01*
X7202Y4902D02*
X9998D01*
Y10098D01*
X7202D02*
X9998D01*
X7202Y4902D02*
Y10098D01*
X21988Y4923D02*
X23012D01*
Y9077D01*
X21988Y4923D02*
Y9077D01*
X23012D01*
X21102Y14598D02*
X23898D01*
X21102Y9402D02*
Y14598D01*
Y9402D02*
X23898D01*
Y14598D01*
X11102D02*
X13898D01*
X11102Y9402D02*
Y14598D01*
Y9402D02*
X13898D01*
Y14598D01*
X16102D02*
X18898D01*
X16102Y9402D02*
Y14598D01*
Y9402D02*
X18898D01*
Y14598D01*
X11988Y4923D02*
X13012D01*
Y9077D01*
X11988Y4923D02*
Y9077D01*
X13012D01*
X16988Y4923D02*
X18012D01*
Y9077D01*
X16988Y4923D02*
Y9077D01*
X18012D01*
D31*
X22303Y7000D02*
X22697D01*
X22500Y6803D02*
Y7197D01*
X12303Y7000D02*
X12697D01*
X12500Y6803D02*
Y7197D01*
X17303Y7000D02*
X17697D01*
X17500Y6803D02*
Y7197D01*
M02*
