G04*
G04 #@! TF.GenerationSoftware,Altium Limited,Altium Designer,21.2.2 (38)*
G04*
G04 Layer_Color=16711935*
%FSLAX24Y24*%
%MOIN*%
G70*
G04*
G04 #@! TF.SameCoordinates,143DD886-8BEB-4202-99AC-BBB6EA89E434*
G04*
G04*
G04 #@! TF.FilePolarity,Positive*
G04*
G01*
G75*
%ADD31C,0.0039*%
D31*
X23651Y1500D02*
X23646Y1600D01*
X23633Y1700D01*
X23611Y1798D01*
X23581Y1894D01*
X23543Y1986D01*
X23496Y2075D01*
X23443Y2160D01*
X23381Y2240D01*
X23314Y2314D01*
X23240Y2381D01*
X23160Y2443D01*
X23075Y2496D01*
X22986Y2543D01*
X22894Y2581D01*
X22798Y2611D01*
X22700Y2633D01*
X22600Y2646D01*
X22500Y2651D01*
X22400Y2646D01*
X22300Y2633D01*
X22202Y2611D01*
X22106Y2581D01*
X22014Y2543D01*
X21925Y2496D01*
X21840Y2443D01*
X21760Y2381D01*
X21686Y2314D01*
X21619Y2240D01*
X21557Y2160D01*
X21504Y2075D01*
X21457Y1986D01*
X21419Y1894D01*
X21389Y1798D01*
X21367Y1700D01*
X21354Y1600D01*
X21349Y1500D01*
X21354Y1400D01*
X21367Y1300D01*
X21389Y1202D01*
X21419Y1106D01*
X21457Y1014D01*
X21504Y925D01*
X21557Y840D01*
X21619Y760D01*
X21686Y686D01*
X21760Y619D01*
X21840Y557D01*
X21925Y504D01*
X22014Y457D01*
X22106Y419D01*
X22202Y389D01*
X22300Y367D01*
X22400Y354D01*
X22500Y349D01*
X22600Y354D01*
X22700Y367D01*
X22798Y389D01*
X22894Y419D01*
X22986Y457D01*
X23075Y504D01*
X23160Y557D01*
X23240Y619D01*
X23314Y686D01*
X23381Y760D01*
X23443Y840D01*
X23496Y925D01*
X23543Y1014D01*
X23581Y1106D01*
X23611Y1202D01*
X23633Y1300D01*
X23646Y1400D01*
X23651Y1500D01*
X13651D02*
X13646Y1600D01*
X13633Y1700D01*
X13611Y1798D01*
X13581Y1894D01*
X13543Y1986D01*
X13496Y2075D01*
X13443Y2160D01*
X13381Y2240D01*
X13314Y2314D01*
X13240Y2381D01*
X13160Y2443D01*
X13075Y2496D01*
X12986Y2543D01*
X12894Y2581D01*
X12798Y2611D01*
X12700Y2633D01*
X12600Y2646D01*
X12500Y2651D01*
X12400Y2646D01*
X12300Y2633D01*
X12202Y2611D01*
X12106Y2581D01*
X12014Y2543D01*
X11925Y2496D01*
X11840Y2443D01*
X11760Y2381D01*
X11686Y2314D01*
X11619Y2240D01*
X11557Y2160D01*
X11504Y2075D01*
X11457Y1986D01*
X11419Y1894D01*
X11389Y1798D01*
X11367Y1700D01*
X11354Y1600D01*
X11349Y1500D01*
X11354Y1400D01*
X11367Y1300D01*
X11389Y1202D01*
X11419Y1106D01*
X11457Y1014D01*
X11504Y925D01*
X11557Y840D01*
X11619Y760D01*
X11686Y686D01*
X11760Y619D01*
X11840Y557D01*
X11925Y504D01*
X12014Y457D01*
X12106Y419D01*
X12202Y389D01*
X12300Y367D01*
X12400Y354D01*
X12500Y349D01*
X12600Y354D01*
X12700Y367D01*
X12798Y389D01*
X12894Y419D01*
X12986Y457D01*
X13075Y504D01*
X13160Y557D01*
X13240Y619D01*
X13314Y686D01*
X13381Y760D01*
X13443Y840D01*
X13496Y925D01*
X13543Y1014D01*
X13581Y1106D01*
X13611Y1202D01*
X13633Y1300D01*
X13646Y1400D01*
X13651Y1500D01*
X18651D02*
X18646Y1600D01*
X18633Y1700D01*
X18611Y1798D01*
X18581Y1894D01*
X18543Y1986D01*
X18496Y2075D01*
X18443Y2160D01*
X18381Y2240D01*
X18314Y2314D01*
X18240Y2381D01*
X18160Y2443D01*
X18075Y2496D01*
X17986Y2543D01*
X17894Y2581D01*
X17798Y2611D01*
X17700Y2633D01*
X17600Y2646D01*
X17500Y2651D01*
X17400Y2646D01*
X17300Y2633D01*
X17202Y2611D01*
X17106Y2581D01*
X17014Y2543D01*
X16925Y2496D01*
X16840Y2443D01*
X16760Y2381D01*
X16686Y2314D01*
X16619Y2240D01*
X16557Y2160D01*
X16504Y2075D01*
X16457Y1986D01*
X16419Y1894D01*
X16389Y1798D01*
X16367Y1700D01*
X16354Y1600D01*
X16349Y1500D01*
X16354Y1400D01*
X16367Y1300D01*
X16389Y1202D01*
X16419Y1106D01*
X16457Y1014D01*
X16504Y925D01*
X16557Y840D01*
X16619Y760D01*
X16686Y686D01*
X16760Y619D01*
X16840Y557D01*
X16925Y504D01*
X17014Y457D01*
X17106Y419D01*
X17202Y389D01*
X17300Y367D01*
X17400Y354D01*
X17500Y349D01*
X17600Y354D01*
X17700Y367D01*
X17798Y389D01*
X17894Y419D01*
X17986Y457D01*
X18075Y504D01*
X18160Y557D01*
X18240Y619D01*
X18314Y686D01*
X18381Y760D01*
X18443Y840D01*
X18496Y925D01*
X18543Y1014D01*
X18581Y1106D01*
X18611Y1202D01*
X18633Y1300D01*
X18646Y1400D01*
X18651Y1500D01*
X22028Y8240D02*
X22972D01*
Y5760D02*
Y8240D01*
X22028Y5760D02*
Y8240D01*
Y5760D02*
X22972D01*
X12028Y8240D02*
X12972D01*
Y5760D02*
Y8240D01*
X12028Y5760D02*
Y8240D01*
Y5760D02*
X12972D01*
X17028Y8240D02*
X17972D01*
Y5760D02*
Y8240D01*
X17028Y5760D02*
Y8240D01*
Y5760D02*
X17972D01*
M02*
