G04*
G04 #@! TF.GenerationSoftware,Altium Limited,Altium Designer,21.2.2 (38)*
G04*
G04 Layer_Physical_Order=2*
G04 Layer_Color=16711680*
%FSLAX24Y24*%
%MOIN*%
G70*
G04*
G04 #@! TF.SameCoordinates,143DD886-8BEB-4202-99AC-BBB6EA89E434*
G04*
G04*
G04 #@! TF.FilePolarity,Positive*
G04*
G01*
G75*
%ADD21C,0.0500*%
%ADD22C,0.0965*%
%ADD23R,0.0965X0.0965*%
%ADD24C,0.1000*%
%ADD25C,0.0600*%
%ADD26R,0.0531X0.0531*%
%ADD27C,0.0531*%
%ADD28C,0.0610*%
%ADD29R,0.0610X0.0610*%
G36*
X30000Y0D02*
X0D01*
Y15000D01*
X30000D01*
Y0D01*
D02*
G37*
%LPC*%
G36*
X7359Y14600D02*
X7241D01*
X7125Y14577D01*
X7016Y14532D01*
X6918Y14466D01*
X6834Y14382D01*
X6768Y14284D01*
X6723Y14175D01*
X6700Y14059D01*
Y13941D01*
X6723Y13825D01*
X6768Y13716D01*
X6834Y13618D01*
X6918Y13534D01*
X7016Y13468D01*
X7125Y13423D01*
X7241Y13400D01*
X7359D01*
X7475Y13423D01*
X7584Y13468D01*
X7682Y13534D01*
X7766Y13618D01*
X7832Y13716D01*
X7877Y13825D01*
X7900Y13941D01*
Y14059D01*
X7877Y14175D01*
X7832Y14284D01*
X7766Y14382D01*
X7682Y14466D01*
X7584Y14532D01*
X7475Y14577D01*
X7359Y14600D01*
D02*
G37*
G36*
X4859D02*
X4741D01*
X4625Y14577D01*
X4516Y14532D01*
X4418Y14466D01*
X4334Y14382D01*
X4268Y14284D01*
X4223Y14175D01*
X4200Y14059D01*
Y13941D01*
X4223Y13825D01*
X4268Y13716D01*
X4334Y13618D01*
X4418Y13534D01*
X4516Y13468D01*
X4625Y13423D01*
X4741Y13400D01*
X4859D01*
X4975Y13423D01*
X5084Y13468D01*
X5182Y13534D01*
X5266Y13618D01*
X5332Y13716D01*
X5377Y13825D01*
X5400Y13941D01*
Y14059D01*
X5377Y14175D01*
X5332Y14284D01*
X5266Y14382D01*
X5182Y14466D01*
X5084Y14532D01*
X4975Y14577D01*
X4859Y14600D01*
D02*
G37*
G36*
X18082Y14433D02*
X16918D01*
Y13268D01*
X18082D01*
Y14433D01*
D02*
G37*
G36*
X13082D02*
X11918D01*
Y13268D01*
X13082D01*
Y14433D01*
D02*
G37*
G36*
X28587Y14600D02*
X28413D01*
X28242Y14573D01*
X28078Y14519D01*
X27923Y14441D01*
X27783Y14339D01*
X27661Y14217D01*
X27559Y14077D01*
X27481Y13922D01*
X27427Y13758D01*
X27400Y13587D01*
Y13413D01*
X27427Y13242D01*
X27481Y13078D01*
X27559Y12923D01*
X27661Y12783D01*
X27783Y12661D01*
X27923Y12559D01*
X28078Y12481D01*
X28242Y12427D01*
X28413Y12400D01*
X28587D01*
X28758Y12427D01*
X28922Y12481D01*
X29077Y12559D01*
X29217Y12661D01*
X29339Y12783D01*
X29441Y12923D01*
X29519Y13078D01*
X29573Y13242D01*
X29600Y13413D01*
Y13587D01*
X29573Y13758D01*
X29519Y13922D01*
X29441Y14077D01*
X29339Y14217D01*
X29217Y14339D01*
X29077Y14441D01*
X28922Y14519D01*
X28758Y14573D01*
X28587Y14600D01*
D02*
G37*
G36*
X1587D02*
X1413D01*
X1242Y14573D01*
X1078Y14519D01*
X923Y14441D01*
X783Y14339D01*
X661Y14217D01*
X559Y14077D01*
X481Y13922D01*
X427Y13758D01*
X400Y13587D01*
Y13413D01*
X427Y13242D01*
X481Y13078D01*
X559Y12923D01*
X661Y12783D01*
X783Y12661D01*
X923Y12559D01*
X1078Y12481D01*
X1242Y12427D01*
X1413Y12400D01*
X1587D01*
X1758Y12427D01*
X1922Y12481D01*
X2077Y12559D01*
X2217Y12661D01*
X2339Y12783D01*
X2441Y12923D01*
X2519Y13078D01*
X2573Y13242D01*
X2600Y13413D01*
Y13587D01*
X2573Y13758D01*
X2519Y13922D01*
X2441Y14077D01*
X2339Y14217D01*
X2217Y14339D01*
X2077Y14441D01*
X1922Y14519D01*
X1758Y14573D01*
X1587Y14600D01*
D02*
G37*
G36*
X6859Y12850D02*
X6850D01*
Y12300D01*
X7400D01*
Y12309D01*
X7377Y12425D01*
X7332Y12534D01*
X7266Y12632D01*
X7182Y12716D01*
X7084Y12782D01*
X6975Y12827D01*
X6859Y12850D01*
D02*
G37*
G36*
X6750D02*
X6741D01*
X6625Y12827D01*
X6516Y12782D01*
X6418Y12716D01*
X6334Y12632D01*
X6268Y12534D01*
X6223Y12425D01*
X6200Y12309D01*
Y12300D01*
X6750D01*
Y12850D01*
D02*
G37*
G36*
X23082Y14433D02*
X21918D01*
Y13268D01*
X22583D01*
X23297Y12554D01*
Y1796D01*
X22875Y1374D01*
X22662D01*
X22656Y1378D01*
X22553Y1405D01*
X22447D01*
X22344Y1378D01*
X22251Y1324D01*
X22176Y1249D01*
X22122Y1156D01*
X22095Y1053D01*
Y947D01*
X22122Y844D01*
X22176Y751D01*
X22251Y676D01*
X22344Y622D01*
X22447Y595D01*
X22553D01*
X22656Y622D01*
X22735Y668D01*
X23021D01*
X23112Y680D01*
X23198Y715D01*
X23271Y771D01*
X23900Y1400D01*
X23956Y1473D01*
X23991Y1559D01*
X24003Y1650D01*
Y12347D01*
X24803D01*
X26007Y11144D01*
X26000Y11109D01*
Y10991D01*
X26023Y10875D01*
X26068Y10766D01*
X26134Y10668D01*
X26218Y10584D01*
X26316Y10518D01*
X26425Y10473D01*
X26541Y10450D01*
X26659D01*
X26775Y10473D01*
X26884Y10518D01*
X26982Y10584D01*
X27066Y10668D01*
X27132Y10766D01*
X27177Y10875D01*
X27200Y10991D01*
Y11109D01*
X27177Y11225D01*
X27132Y11334D01*
X27066Y11432D01*
X26982Y11516D01*
X26884Y11582D01*
X26775Y11627D01*
X26659Y11650D01*
X26541D01*
X26506Y11643D01*
X26349Y11801D01*
X26377Y11843D01*
X26425Y11823D01*
X26541Y11800D01*
X26659D01*
X26775Y11823D01*
X26884Y11868D01*
X26982Y11934D01*
X27066Y12018D01*
X27132Y12116D01*
X27177Y12225D01*
X27200Y12341D01*
Y12459D01*
X27177Y12575D01*
X27132Y12684D01*
X27066Y12782D01*
X26982Y12866D01*
X26884Y12932D01*
X26775Y12977D01*
X26659Y13000D01*
X26541D01*
X26425Y12977D01*
X26316Y12932D01*
X26218Y12866D01*
X26134Y12782D01*
X26068Y12684D01*
X26023Y12575D01*
X26000Y12459D01*
Y12341D01*
X26023Y12225D01*
X26043Y12177D01*
X26001Y12149D01*
X25199Y12950D01*
X25126Y13006D01*
X25041Y13041D01*
X24950Y13053D01*
X23796D01*
X23082Y13767D01*
Y14433D01*
D02*
G37*
G36*
X7400Y12200D02*
X6850D01*
Y11650D01*
X6859D01*
X6975Y11673D01*
X7084Y11718D01*
X7182Y11784D01*
X7266Y11868D01*
X7332Y11966D01*
X7377Y12075D01*
X7400Y12191D01*
Y12200D01*
D02*
G37*
G36*
X6750D02*
X6200D01*
Y12191D01*
X6223Y12075D01*
X6268Y11966D01*
X6334Y11868D01*
X6418Y11784D01*
X6516Y11718D01*
X6625Y11673D01*
X6741Y11650D01*
X6750D01*
Y12200D01*
D02*
G37*
G36*
X22557Y12582D02*
X22443D01*
X22330Y12560D01*
X22224Y12516D01*
X22129Y12452D01*
X22048Y12371D01*
X21984Y12276D01*
X21940Y12170D01*
X21918Y12057D01*
Y11943D01*
X21940Y11830D01*
X21984Y11724D01*
X22048Y11629D01*
X22129Y11548D01*
X22224Y11484D01*
X22330Y11440D01*
X22443Y11418D01*
X22557D01*
X22670Y11440D01*
X22776Y11484D01*
X22871Y11548D01*
X22952Y11629D01*
X23016Y11724D01*
X23060Y11830D01*
X23082Y11943D01*
Y12057D01*
X23060Y12170D01*
X23016Y12276D01*
X22952Y12371D01*
X22871Y12452D01*
X22776Y12516D01*
X22670Y12560D01*
X22557Y12582D01*
D02*
G37*
G36*
X17557D02*
X17443D01*
X17330Y12560D01*
X17224Y12516D01*
X17129Y12452D01*
X17048Y12371D01*
X16984Y12276D01*
X16940Y12170D01*
X16918Y12057D01*
Y11943D01*
X16922Y11921D01*
X12854Y7853D01*
X9064D01*
X9052Y7871D01*
X8971Y7952D01*
X8876Y8016D01*
X8770Y8060D01*
X8657Y8082D01*
X8543D01*
X8430Y8060D01*
X8324Y8016D01*
X8229Y7952D01*
X8148Y7871D01*
X8084Y7776D01*
X8040Y7670D01*
X8018Y7557D01*
Y7443D01*
X8040Y7330D01*
X8084Y7224D01*
X8148Y7129D01*
X8229Y7048D01*
X8324Y6984D01*
X8430Y6940D01*
X8543Y6918D01*
X8657D01*
X8770Y6940D01*
X8876Y6984D01*
X8971Y7048D01*
X9052Y7129D01*
X9064Y7147D01*
X13000D01*
X13091Y7159D01*
X13177Y7194D01*
X13250Y7250D01*
X17421Y11422D01*
X17443Y11418D01*
X17557D01*
X17670Y11440D01*
X17776Y11484D01*
X17871Y11548D01*
X17952Y11629D01*
X18016Y11724D01*
X18060Y11830D01*
X18082Y11943D01*
Y12057D01*
X18060Y12170D01*
X18016Y12276D01*
X17952Y12371D01*
X17871Y12452D01*
X17776Y12516D01*
X17670Y12560D01*
X17557Y12582D01*
D02*
G37*
G36*
X12557D02*
X12443D01*
X12330Y12560D01*
X12224Y12516D01*
X12129Y12452D01*
X12048Y12371D01*
X11984Y12276D01*
X11940Y12170D01*
X11918Y12057D01*
Y11943D01*
X11940Y11830D01*
X11984Y11724D01*
X12048Y11629D01*
X12129Y11548D01*
X12224Y11484D01*
X12330Y11440D01*
X12443Y11418D01*
X12557D01*
X12670Y11440D01*
X12776Y11484D01*
X12871Y11548D01*
X12952Y11629D01*
X13016Y11724D01*
X13060Y11830D01*
X13082Y11943D01*
Y12057D01*
X13060Y12170D01*
X13016Y12276D01*
X12952Y12371D01*
X12871Y12452D01*
X12776Y12516D01*
X12670Y12560D01*
X12557Y12582D01*
D02*
G37*
G36*
X28659Y12350D02*
X28541D01*
X28425Y12327D01*
X28316Y12282D01*
X28218Y12216D01*
X28134Y12132D01*
X28068Y12034D01*
X28023Y11925D01*
X28000Y11809D01*
Y11691D01*
X28023Y11575D01*
X28068Y11466D01*
X28134Y11368D01*
X28218Y11284D01*
X28316Y11218D01*
X28425Y11173D01*
X28541Y11150D01*
X28659D01*
X28775Y11173D01*
X28884Y11218D01*
X28982Y11284D01*
X29066Y11368D01*
X29132Y11466D01*
X29177Y11575D01*
X29200Y11691D01*
Y11809D01*
X29177Y11925D01*
X29132Y12034D01*
X29066Y12132D01*
X28982Y12216D01*
X28884Y12282D01*
X28775Y12327D01*
X28659Y12350D01*
D02*
G37*
G36*
X2809Y11700D02*
X2800D01*
Y11150D01*
X3350D01*
Y11159D01*
X3327Y11275D01*
X3282Y11384D01*
X3216Y11482D01*
X3132Y11566D01*
X3034Y11632D01*
X2925Y11677D01*
X2809Y11700D01*
D02*
G37*
G36*
X2700D02*
X2691D01*
X2575Y11677D01*
X2466Y11632D01*
X2368Y11566D01*
X2284Y11482D01*
X2218Y11384D01*
X2173Y11275D01*
X2150Y11159D01*
Y11150D01*
X2700D01*
Y11700D01*
D02*
G37*
G36*
X1059Y12200D02*
X941D01*
X825Y12177D01*
X716Y12132D01*
X618Y12066D01*
X534Y11982D01*
X468Y11884D01*
X423Y11775D01*
X400Y11659D01*
Y11541D01*
X423Y11425D01*
X468Y11316D01*
X534Y11218D01*
X618Y11134D01*
X716Y11068D01*
X825Y11023D01*
X941Y11000D01*
X1059D01*
X1175Y11023D01*
X1284Y11068D01*
X1382Y11134D01*
X1466Y11218D01*
X1532Y11316D01*
X1577Y11425D01*
X1600Y11541D01*
Y11659D01*
X1577Y11775D01*
X1532Y11884D01*
X1466Y11982D01*
X1382Y12066D01*
X1284Y12132D01*
X1175Y12177D01*
X1059Y12200D01*
D02*
G37*
G36*
X3350Y11050D02*
X2800D01*
Y10500D01*
X2809D01*
X2925Y10523D01*
X3034Y10568D01*
X3132Y10634D01*
X3216Y10718D01*
X3282Y10816D01*
X3327Y10925D01*
X3350Y11041D01*
Y11050D01*
D02*
G37*
G36*
X2700D02*
X2150D01*
Y11041D01*
X2173Y10925D01*
X2218Y10816D01*
X2284Y10718D01*
X2368Y10634D01*
X2466Y10568D01*
X2575Y10523D01*
X2691Y10500D01*
X2700D01*
Y11050D01*
D02*
G37*
G36*
X22557Y10732D02*
X22443D01*
X22330Y10710D01*
X22224Y10666D01*
X22129Y10602D01*
X22048Y10521D01*
X21984Y10425D01*
X21940Y10319D01*
X21918Y10207D01*
Y10092D01*
X21940Y9980D01*
X21984Y9874D01*
X22048Y9778D01*
X22129Y9697D01*
X22224Y9634D01*
X22330Y9590D01*
X22443Y9567D01*
X22557D01*
X22670Y9590D01*
X22776Y9634D01*
X22871Y9697D01*
X22952Y9778D01*
X23016Y9874D01*
X23060Y9980D01*
X23082Y10092D01*
Y10207D01*
X23060Y10319D01*
X23016Y10425D01*
X22952Y10521D01*
X22871Y10602D01*
X22776Y10666D01*
X22670Y10710D01*
X22557Y10732D01*
D02*
G37*
G36*
X17557D02*
X17443D01*
X17330Y10710D01*
X17224Y10666D01*
X17129Y10602D01*
X17048Y10521D01*
X16984Y10425D01*
X16940Y10319D01*
X16918Y10207D01*
Y10092D01*
X16940Y9980D01*
X16984Y9874D01*
X17048Y9778D01*
X17129Y9697D01*
X17224Y9634D01*
X17330Y9590D01*
X17443Y9567D01*
X17557D01*
X17670Y9590D01*
X17776Y9634D01*
X17871Y9697D01*
X17952Y9778D01*
X18016Y9874D01*
X18060Y9980D01*
X18082Y10092D01*
Y10207D01*
X18060Y10319D01*
X18016Y10425D01*
X17952Y10521D01*
X17871Y10602D01*
X17776Y10666D01*
X17670Y10710D01*
X17557Y10732D01*
D02*
G37*
G36*
X12557D02*
X12443D01*
X12330Y10710D01*
X12224Y10666D01*
X12129Y10602D01*
X12048Y10521D01*
X11984Y10425D01*
X11940Y10319D01*
X11918Y10207D01*
Y10092D01*
X11940Y9980D01*
X11984Y9874D01*
X12048Y9778D01*
X12129Y9697D01*
X12224Y9634D01*
X12330Y9590D01*
X12443Y9567D01*
X12557D01*
X12670Y9590D01*
X12776Y9634D01*
X12871Y9697D01*
X12952Y9778D01*
X13016Y9874D01*
X13060Y9980D01*
X13082Y10092D01*
Y10207D01*
X13060Y10319D01*
X13016Y10425D01*
X12952Y10521D01*
X12871Y10602D01*
X12776Y10666D01*
X12670Y10710D01*
X12557Y10732D01*
D02*
G37*
G36*
X5359Y12850D02*
X5241D01*
X5125Y12827D01*
X5016Y12782D01*
X4918Y12716D01*
X4834Y12632D01*
X4768Y12534D01*
X4723Y12425D01*
X4700Y12309D01*
Y12191D01*
X4723Y12075D01*
X4768Y11966D01*
X4834Y11868D01*
X4918Y11784D01*
X4947Y11764D01*
Y10924D01*
X3334Y9311D01*
X3291Y9339D01*
X3327Y9425D01*
X3350Y9541D01*
Y9659D01*
X3327Y9775D01*
X3282Y9884D01*
X3216Y9982D01*
X3132Y10066D01*
X3034Y10132D01*
X2925Y10177D01*
X2809Y10200D01*
X2691D01*
X2575Y10177D01*
X2466Y10132D01*
X2368Y10066D01*
X2284Y9982D01*
X2218Y9884D01*
X2173Y9775D01*
X2150Y9659D01*
Y9541D01*
X2173Y9425D01*
X2218Y9316D01*
X2284Y9218D01*
X2368Y9134D01*
X2466Y9068D01*
X2575Y9023D01*
X2691Y9000D01*
X2809D01*
X2925Y9023D01*
X3011Y9059D01*
X3039Y9016D01*
X2613Y8590D01*
X2566Y8578D01*
X2473Y8524D01*
X2398Y8449D01*
X2345Y8356D01*
X2317Y8253D01*
Y8147D01*
X2345Y8044D01*
X2369Y8001D01*
Y7099D01*
X2345Y7056D01*
X2317Y6953D01*
Y6847D01*
X2345Y6744D01*
X2398Y6651D01*
X2473Y6576D01*
X2566Y6522D01*
X2669Y6495D01*
X2775D01*
X2878Y6522D01*
X2971Y6576D01*
X3046Y6651D01*
X3100Y6744D01*
X3127Y6847D01*
Y6953D01*
X3100Y7056D01*
X3075Y7099D01*
Y8001D01*
X3100Y8044D01*
X3112Y8091D01*
X5550Y10528D01*
X5606Y10601D01*
X5641Y10687D01*
X5653Y10778D01*
Y11764D01*
X5682Y11784D01*
X5766Y11868D01*
X5832Y11966D01*
X5877Y12075D01*
X5900Y12191D01*
Y12309D01*
X5877Y12425D01*
X5832Y12534D01*
X5766Y12632D01*
X5682Y12716D01*
X5584Y12782D01*
X5475Y12827D01*
X5359Y12850D01*
D02*
G37*
G36*
X26659Y10250D02*
X26541D01*
X26425Y10227D01*
X26316Y10182D01*
X26218Y10116D01*
X26134Y10032D01*
X26068Y9934D01*
X26023Y9825D01*
X26000Y9709D01*
Y9591D01*
X26023Y9475D01*
X26068Y9366D01*
X26134Y9268D01*
X26218Y9184D01*
X26316Y9118D01*
X26425Y9073D01*
X26541Y9050D01*
X26659D01*
X26775Y9073D01*
X26884Y9118D01*
X26982Y9184D01*
X27066Y9268D01*
X27132Y9366D01*
X27177Y9475D01*
X27200Y9591D01*
Y9709D01*
X27177Y9825D01*
X27132Y9934D01*
X27066Y10032D01*
X26982Y10116D01*
X26884Y10182D01*
X26775Y10227D01*
X26659Y10250D01*
D02*
G37*
G36*
X17866Y9137D02*
X17550D01*
Y8822D01*
X17866D01*
Y9137D01*
D02*
G37*
G36*
X12866D02*
X12550D01*
Y8822D01*
X12866D01*
Y9137D01*
D02*
G37*
G36*
X17450D02*
X17134D01*
Y8822D01*
X17450D01*
Y9137D01*
D02*
G37*
G36*
X12450D02*
X12134D01*
Y8822D01*
X12450D01*
Y9137D01*
D02*
G37*
G36*
X8657Y9933D02*
X8543D01*
X8430Y9910D01*
X8324Y9866D01*
X8229Y9803D01*
X8148Y9722D01*
X8084Y9626D01*
X8040Y9520D01*
X8018Y9408D01*
Y9293D01*
X8040Y9181D01*
X8084Y9075D01*
X8148Y8979D01*
X8229Y8898D01*
X8324Y8834D01*
X8430Y8790D01*
X8543Y8768D01*
X8657D01*
X8770Y8790D01*
X8876Y8834D01*
X8971Y8898D01*
X9052Y8979D01*
X9116Y9075D01*
X9160Y9181D01*
X9182Y9293D01*
Y9408D01*
X9160Y9520D01*
X9116Y9626D01*
X9052Y9722D01*
X8971Y9803D01*
X8876Y9866D01*
X8770Y9910D01*
X8657Y9933D01*
D02*
G37*
G36*
X1059Y9700D02*
X941D01*
X825Y9677D01*
X716Y9632D01*
X618Y9566D01*
X534Y9482D01*
X468Y9384D01*
X423Y9275D01*
X400Y9159D01*
Y9041D01*
X423Y8925D01*
X468Y8816D01*
X534Y8718D01*
X618Y8634D01*
X716Y8568D01*
X825Y8523D01*
X941Y8500D01*
X1059D01*
X1175Y8523D01*
X1284Y8568D01*
X1382Y8634D01*
X1466Y8718D01*
X1532Y8816D01*
X1577Y8925D01*
X1600Y9041D01*
Y9159D01*
X1577Y9275D01*
X1532Y9384D01*
X1466Y9482D01*
X1382Y9566D01*
X1284Y9632D01*
X1175Y9677D01*
X1059Y9700D01*
D02*
G37*
G36*
X22866Y9137D02*
X22134D01*
Y8406D01*
X22866D01*
Y9137D01*
D02*
G37*
G36*
X17866Y8722D02*
X17550D01*
Y8406D01*
X17866D01*
Y8722D01*
D02*
G37*
G36*
X17450D02*
X17134D01*
Y8406D01*
X17450D01*
Y8722D01*
D02*
G37*
G36*
X12866D02*
X12550D01*
Y8406D01*
X12866D01*
Y8722D01*
D02*
G37*
G36*
X12450D02*
X12134D01*
Y8406D01*
X12450D01*
Y8722D01*
D02*
G37*
G36*
X28659Y9550D02*
X28541D01*
X28425Y9527D01*
X28316Y9482D01*
X28218Y9416D01*
X28134Y9332D01*
X28068Y9234D01*
X28023Y9125D01*
X28000Y9009D01*
Y8891D01*
X28023Y8775D01*
X28068Y8666D01*
X28134Y8568D01*
X28218Y8484D01*
X28316Y8418D01*
X28425Y8373D01*
X28541Y8350D01*
X28659D01*
X28775Y8373D01*
X28884Y8418D01*
X28982Y8484D01*
X29066Y8568D01*
X29132Y8666D01*
X29177Y8775D01*
X29200Y8891D01*
Y9009D01*
X29177Y9125D01*
X29132Y9234D01*
X29066Y9332D01*
X28982Y9416D01*
X28884Y9482D01*
X28775Y9527D01*
X28659Y9550D01*
D02*
G37*
G36*
X26659Y8900D02*
X26650D01*
Y8350D01*
X27200D01*
Y8359D01*
X27177Y8475D01*
X27132Y8584D01*
X27066Y8682D01*
X26982Y8766D01*
X26884Y8832D01*
X26775Y8877D01*
X26659Y8900D01*
D02*
G37*
G36*
X26550D02*
X26541D01*
X26425Y8877D01*
X26316Y8832D01*
X26218Y8766D01*
X26134Y8682D01*
X26068Y8584D01*
X26023Y8475D01*
X26000Y8359D01*
Y8350D01*
X26550D01*
Y8900D01*
D02*
G37*
G36*
X6531Y8605D02*
X6425D01*
X6322Y8578D01*
X6229Y8524D01*
X6154Y8449D01*
X6100Y8356D01*
X6073Y8253D01*
Y8147D01*
X6100Y8044D01*
X6154Y7951D01*
X6229Y7876D01*
X6322Y7822D01*
X6425Y7795D01*
X6531D01*
X6634Y7822D01*
X6727Y7876D01*
X6802Y7951D01*
X6855Y8044D01*
X6883Y8147D01*
Y8253D01*
X6855Y8356D01*
X6802Y8449D01*
X6727Y8524D01*
X6634Y8578D01*
X6531Y8605D01*
D02*
G37*
G36*
X27200Y8250D02*
X26650D01*
Y7700D01*
X26659D01*
X26775Y7723D01*
X26884Y7768D01*
X26982Y7834D01*
X27066Y7918D01*
X27132Y8016D01*
X27177Y8125D01*
X27200Y8241D01*
Y8250D01*
D02*
G37*
G36*
X26550D02*
X26000D01*
Y8241D01*
X26023Y8125D01*
X26068Y8016D01*
X26134Y7918D01*
X26218Y7834D01*
X26316Y7768D01*
X26425Y7723D01*
X26541Y7700D01*
X26550D01*
Y8250D01*
D02*
G37*
G36*
X6531Y7305D02*
X6425D01*
X6322Y7278D01*
X6229Y7224D01*
X6154Y7149D01*
X6100Y7056D01*
X6073Y6953D01*
Y6847D01*
X6100Y6744D01*
X6154Y6651D01*
X6229Y6576D01*
X6322Y6522D01*
X6425Y6495D01*
X6531D01*
X6634Y6522D01*
X6727Y6576D01*
X6802Y6651D01*
X6855Y6744D01*
X6883Y6847D01*
Y6953D01*
X6855Y7056D01*
X6802Y7149D01*
X6727Y7224D01*
X6634Y7278D01*
X6531Y7305D01*
D02*
G37*
G36*
X26659Y7300D02*
X26541D01*
X26425Y7277D01*
X26316Y7232D01*
X26218Y7166D01*
X26134Y7082D01*
X26068Y6984D01*
X26023Y6875D01*
X26000Y6759D01*
Y6641D01*
X26023Y6525D01*
X26068Y6416D01*
X26134Y6318D01*
X26218Y6234D01*
X26316Y6168D01*
X26425Y6123D01*
X26541Y6100D01*
X26659D01*
X26775Y6123D01*
X26884Y6168D01*
X26982Y6234D01*
X27066Y6318D01*
X27132Y6416D01*
X27177Y6525D01*
X27200Y6641D01*
Y6759D01*
X27177Y6875D01*
X27132Y6984D01*
X27066Y7082D01*
X26982Y7166D01*
X26884Y7232D01*
X26775Y7277D01*
X26659Y7300D01*
D02*
G37*
G36*
X2809Y6100D02*
X2800D01*
Y5550D01*
X3350D01*
Y5559D01*
X3327Y5675D01*
X3282Y5784D01*
X3216Y5882D01*
X3132Y5966D01*
X3034Y6032D01*
X2925Y6077D01*
X2809Y6100D01*
D02*
G37*
G36*
X2700D02*
X2691D01*
X2575Y6077D01*
X2466Y6032D01*
X2368Y5966D01*
X2284Y5882D01*
X2218Y5784D01*
X2173Y5675D01*
X2150Y5559D01*
Y5550D01*
X2700D01*
Y6100D01*
D02*
G37*
G36*
X28659Y6650D02*
X28541D01*
X28425Y6627D01*
X28316Y6582D01*
X28218Y6516D01*
X28134Y6432D01*
X28068Y6334D01*
X28023Y6225D01*
X28000Y6109D01*
Y5991D01*
X28023Y5875D01*
X28068Y5766D01*
X28134Y5668D01*
X28218Y5584D01*
X28316Y5518D01*
X28425Y5473D01*
X28541Y5450D01*
X28659D01*
X28775Y5473D01*
X28884Y5518D01*
X28982Y5584D01*
X29066Y5668D01*
X29132Y5766D01*
X29177Y5875D01*
X29200Y5991D01*
Y6109D01*
X29177Y6225D01*
X29132Y6334D01*
X29066Y6432D01*
X28982Y6516D01*
X28884Y6582D01*
X28775Y6627D01*
X28659Y6650D01*
D02*
G37*
G36*
X1059Y6600D02*
X941D01*
X825Y6577D01*
X716Y6532D01*
X618Y6466D01*
X534Y6382D01*
X468Y6284D01*
X423Y6175D01*
X400Y6059D01*
Y5941D01*
X423Y5825D01*
X468Y5716D01*
X534Y5618D01*
X618Y5534D01*
X716Y5468D01*
X825Y5423D01*
X941Y5400D01*
X1059D01*
X1175Y5423D01*
X1284Y5468D01*
X1382Y5534D01*
X1466Y5618D01*
X1532Y5716D01*
X1577Y5825D01*
X1600Y5941D01*
Y6059D01*
X1577Y6175D01*
X1532Y6284D01*
X1466Y6382D01*
X1382Y6466D01*
X1284Y6532D01*
X1175Y6577D01*
X1059Y6600D01*
D02*
G37*
G36*
X22550Y5594D02*
Y5278D01*
X22865D01*
X22841Y5370D01*
X22793Y5453D01*
X22725Y5521D01*
X22641Y5569D01*
X22550Y5594D01*
D02*
G37*
G36*
X22450D02*
X22359Y5569D01*
X22275Y5521D01*
X22207Y5453D01*
X22159Y5370D01*
X22135Y5278D01*
X22450D01*
Y5594D01*
D02*
G37*
G36*
X9182Y6232D02*
X8018D01*
Y5067D01*
X9182D01*
Y6232D01*
D02*
G37*
G36*
X3350Y5450D02*
X2800D01*
Y4900D01*
X2809D01*
X2925Y4923D01*
X3034Y4968D01*
X3132Y5034D01*
X3216Y5118D01*
X3282Y5216D01*
X3327Y5325D01*
X3350Y5441D01*
Y5450D01*
D02*
G37*
G36*
X2700D02*
X2150D01*
Y5441D01*
X2173Y5325D01*
X2218Y5216D01*
X2284Y5118D01*
X2368Y5034D01*
X2466Y4968D01*
X2575Y4923D01*
X2691Y4900D01*
X2700D01*
Y5450D01*
D02*
G37*
G36*
X22865Y5178D02*
X22550D01*
Y4863D01*
X22641Y4888D01*
X22725Y4936D01*
X22793Y5004D01*
X22841Y5087D01*
X22865Y5178D01*
D02*
G37*
G36*
X22450D02*
X22135D01*
X22159Y5087D01*
X22207Y5004D01*
X22275Y4936D01*
X22359Y4888D01*
X22450Y4863D01*
Y5178D01*
D02*
G37*
G36*
X17548Y5594D02*
X17452D01*
X17359Y5569D01*
X17275Y5521D01*
X17207Y5453D01*
X17159Y5370D01*
X17134Y5276D01*
Y5180D01*
X17159Y5087D01*
X17207Y5004D01*
X17275Y4936D01*
X17359Y4888D01*
X17452Y4863D01*
X17548D01*
X17641Y4888D01*
X17725Y4936D01*
X17793Y5004D01*
X17841Y5087D01*
X17866Y5180D01*
Y5276D01*
X17841Y5370D01*
X17793Y5453D01*
X17725Y5521D01*
X17641Y5569D01*
X17548Y5594D01*
D02*
G37*
G36*
X12548D02*
X12452D01*
X12359Y5569D01*
X12275Y5521D01*
X12207Y5453D01*
X12159Y5370D01*
X12134Y5276D01*
Y5180D01*
X12159Y5087D01*
X12207Y5004D01*
X12275Y4936D01*
X12359Y4888D01*
X12452Y4863D01*
X12548D01*
X12641Y4888D01*
X12725Y4936D01*
X12793Y5004D01*
X12841Y5087D01*
X12866Y5180D01*
Y5276D01*
X12841Y5370D01*
X12793Y5453D01*
X12725Y5521D01*
X12641Y5569D01*
X12548Y5594D01*
D02*
G37*
G36*
X26659Y5950D02*
X26541D01*
X26425Y5927D01*
X26316Y5882D01*
X26218Y5816D01*
X26134Y5732D01*
X26068Y5634D01*
X26023Y5525D01*
X26000Y5409D01*
Y5291D01*
X26023Y5175D01*
X26068Y5066D01*
X26134Y4968D01*
X26218Y4884D01*
X26316Y4818D01*
X26425Y4773D01*
X26541Y4750D01*
X26659D01*
X26775Y4773D01*
X26884Y4818D01*
X26982Y4884D01*
X27066Y4968D01*
X27132Y5066D01*
X27177Y5175D01*
X27200Y5291D01*
Y5409D01*
X27177Y5525D01*
X27132Y5634D01*
X27066Y5732D01*
X26982Y5816D01*
X26884Y5882D01*
X26775Y5927D01*
X26659Y5950D01*
D02*
G37*
G36*
X2809Y4600D02*
X2691D01*
X2575Y4577D01*
X2466Y4532D01*
X2368Y4466D01*
X2284Y4382D01*
X2218Y4284D01*
X2173Y4175D01*
X2150Y4059D01*
Y3941D01*
X2173Y3825D01*
X2218Y3716D01*
X2284Y3618D01*
X2368Y3534D01*
X2466Y3468D01*
X2575Y3423D01*
X2691Y3400D01*
X2809D01*
X2925Y3423D01*
X3034Y3468D01*
X3132Y3534D01*
X3216Y3618D01*
X3282Y3716D01*
X3327Y3825D01*
X3350Y3941D01*
Y4059D01*
X3327Y4175D01*
X3282Y4284D01*
X3216Y4382D01*
X3132Y4466D01*
X3034Y4532D01*
X2925Y4577D01*
X2809Y4600D01*
D02*
G37*
G36*
X26659Y4550D02*
X26541D01*
X26425Y4527D01*
X26316Y4482D01*
X26218Y4416D01*
X26134Y4332D01*
X26068Y4234D01*
X26023Y4125D01*
X26000Y4009D01*
Y3891D01*
X26023Y3775D01*
X26068Y3666D01*
X26134Y3568D01*
X26218Y3484D01*
X26316Y3418D01*
X26425Y3373D01*
X26541Y3350D01*
X26659D01*
X26775Y3373D01*
X26884Y3418D01*
X26982Y3484D01*
X27066Y3568D01*
X27132Y3666D01*
X27177Y3775D01*
X27200Y3891D01*
Y4009D01*
X27177Y4125D01*
X27132Y4234D01*
X27066Y4332D01*
X26982Y4416D01*
X26884Y4482D01*
X26775Y4527D01*
X26659Y4550D01*
D02*
G37*
G36*
X1059Y4100D02*
X941D01*
X825Y4077D01*
X716Y4032D01*
X618Y3966D01*
X534Y3882D01*
X468Y3784D01*
X423Y3675D01*
X400Y3559D01*
Y3441D01*
X423Y3325D01*
X468Y3216D01*
X534Y3118D01*
X618Y3034D01*
X716Y2968D01*
X825Y2923D01*
X941Y2900D01*
X1059D01*
X1175Y2923D01*
X1284Y2968D01*
X1382Y3034D01*
X1466Y3118D01*
X1532Y3216D01*
X1577Y3325D01*
X1600Y3441D01*
Y3559D01*
X1577Y3675D01*
X1532Y3784D01*
X1466Y3882D01*
X1382Y3966D01*
X1284Y4032D01*
X1175Y4077D01*
X1059Y4100D01*
D02*
G37*
G36*
X5259Y3350D02*
X5250D01*
Y2800D01*
X5800D01*
Y2809D01*
X5777Y2925D01*
X5732Y3034D01*
X5666Y3132D01*
X5582Y3216D01*
X5484Y3282D01*
X5375Y3327D01*
X5259Y3350D01*
D02*
G37*
G36*
X5150D02*
X5141D01*
X5025Y3327D01*
X4916Y3282D01*
X4818Y3216D01*
X4734Y3132D01*
X4668Y3034D01*
X4623Y2925D01*
X4600Y2809D01*
Y2800D01*
X5150D01*
Y3350D01*
D02*
G37*
G36*
X28659Y3850D02*
X28541D01*
X28425Y3827D01*
X28316Y3782D01*
X28218Y3716D01*
X28134Y3632D01*
X28068Y3534D01*
X28023Y3425D01*
X28000Y3309D01*
Y3191D01*
X28023Y3075D01*
X28068Y2966D01*
X28134Y2868D01*
X28218Y2784D01*
X28316Y2718D01*
X28425Y2673D01*
X28541Y2650D01*
X28659D01*
X28775Y2673D01*
X28884Y2718D01*
X28982Y2784D01*
X29066Y2868D01*
X29132Y2966D01*
X29177Y3075D01*
X29200Y3191D01*
Y3309D01*
X29177Y3425D01*
X29132Y3534D01*
X29066Y3632D01*
X28982Y3716D01*
X28884Y3782D01*
X28775Y3827D01*
X28659Y3850D01*
D02*
G37*
G36*
X26659Y3200D02*
X26650D01*
Y2650D01*
X27200D01*
Y2659D01*
X27177Y2775D01*
X27132Y2884D01*
X27066Y2982D01*
X26982Y3066D01*
X26884Y3132D01*
X26775Y3177D01*
X26659Y3200D01*
D02*
G37*
G36*
X26550D02*
X26541D01*
X26425Y3177D01*
X26316Y3132D01*
X26218Y3066D01*
X26134Y2982D01*
X26068Y2884D01*
X26023Y2775D01*
X26000Y2659D01*
Y2650D01*
X26550D01*
Y3200D01*
D02*
G37*
G36*
X6759Y3350D02*
X6641D01*
X6525Y3327D01*
X6416Y3282D01*
X6318Y3216D01*
X6234Y3132D01*
X6168Y3034D01*
X6123Y2925D01*
X6100Y2809D01*
Y2691D01*
X6123Y2575D01*
X6168Y2466D01*
X6234Y2368D01*
X6318Y2284D01*
X6416Y2218D01*
X6525Y2173D01*
X6641Y2150D01*
X6759D01*
X6875Y2173D01*
X6984Y2218D01*
X7082Y2284D01*
X7166Y2368D01*
X7232Y2466D01*
X7277Y2575D01*
X7300Y2691D01*
Y2809D01*
X7277Y2925D01*
X7232Y3034D01*
X7166Y3132D01*
X7082Y3216D01*
X6984Y3282D01*
X6875Y3327D01*
X6759Y3350D01*
D02*
G37*
G36*
X5800Y2700D02*
X5250D01*
Y2150D01*
X5259D01*
X5375Y2173D01*
X5484Y2218D01*
X5582Y2284D01*
X5666Y2368D01*
X5732Y2466D01*
X5777Y2575D01*
X5800Y2691D01*
Y2700D01*
D02*
G37*
G36*
X5150D02*
X4600D01*
Y2691D01*
X4623Y2575D01*
X4668Y2466D01*
X4734Y2368D01*
X4818Y2284D01*
X4916Y2218D01*
X5025Y2173D01*
X5141Y2150D01*
X5150D01*
Y2700D01*
D02*
G37*
G36*
X27200Y2550D02*
X26650D01*
Y2000D01*
X26659D01*
X26775Y2023D01*
X26884Y2068D01*
X26982Y2134D01*
X27066Y2218D01*
X27132Y2316D01*
X27177Y2425D01*
X27200Y2541D01*
Y2550D01*
D02*
G37*
G36*
X26550D02*
X26000D01*
Y2541D01*
X26023Y2425D01*
X26068Y2316D01*
X26134Y2218D01*
X26218Y2134D01*
X26316Y2068D01*
X26425Y2023D01*
X26541Y2000D01*
X26550D01*
Y2550D01*
D02*
G37*
G36*
X22905Y2405D02*
X22095D01*
Y1595D01*
X22905D01*
Y2405D01*
D02*
G37*
G36*
X17905D02*
X17095D01*
Y1595D01*
X17905D01*
Y2405D01*
D02*
G37*
G36*
X12905D02*
X12095D01*
Y1595D01*
X12905D01*
Y2405D01*
D02*
G37*
G36*
X17553Y1405D02*
X17447D01*
X17344Y1378D01*
X17251Y1324D01*
X17176Y1249D01*
X17122Y1156D01*
X17095Y1053D01*
Y947D01*
X17122Y844D01*
X17176Y751D01*
X17251Y676D01*
X17344Y622D01*
X17447Y595D01*
X17553D01*
X17656Y622D01*
X17749Y676D01*
X17824Y751D01*
X17878Y844D01*
X17905Y947D01*
Y1053D01*
X17878Y1156D01*
X17824Y1249D01*
X17749Y1324D01*
X17656Y1378D01*
X17553Y1405D01*
D02*
G37*
G36*
X12553D02*
X12447D01*
X12344Y1378D01*
X12251Y1324D01*
X12176Y1249D01*
X12122Y1156D01*
X12095Y1053D01*
Y947D01*
X12122Y844D01*
X12176Y751D01*
X12251Y676D01*
X12344Y622D01*
X12447Y595D01*
X12553D01*
X12656Y622D01*
X12749Y676D01*
X12824Y751D01*
X12878Y844D01*
X12905Y947D01*
Y1053D01*
X12878Y1156D01*
X12824Y1249D01*
X12749Y1324D01*
X12656Y1378D01*
X12553Y1405D01*
D02*
G37*
G36*
X28537Y2600D02*
X28363D01*
X28192Y2573D01*
X28028Y2519D01*
X27873Y2441D01*
X27733Y2339D01*
X27611Y2217D01*
X27509Y2077D01*
X27431Y1922D01*
X27377Y1758D01*
X27350Y1587D01*
Y1413D01*
X27377Y1242D01*
X27431Y1078D01*
X27509Y923D01*
X27611Y783D01*
X27733Y661D01*
X27873Y559D01*
X28028Y481D01*
X28192Y427D01*
X28363Y400D01*
X28537D01*
X28708Y427D01*
X28872Y481D01*
X29027Y559D01*
X29167Y661D01*
X29289Y783D01*
X29391Y923D01*
X29469Y1078D01*
X29523Y1242D01*
X29550Y1413D01*
Y1587D01*
X29523Y1758D01*
X29469Y1922D01*
X29391Y2077D01*
X29289Y2217D01*
X29167Y2339D01*
X29027Y2441D01*
X28872Y2519D01*
X28708Y2573D01*
X28537Y2600D01*
D02*
G37*
G36*
X7259Y1600D02*
X7141D01*
X7025Y1577D01*
X6916Y1532D01*
X6818Y1466D01*
X6734Y1382D01*
X6668Y1284D01*
X6623Y1175D01*
X6600Y1059D01*
Y941D01*
X6623Y825D01*
X6668Y716D01*
X6734Y618D01*
X6818Y534D01*
X6916Y468D01*
X7025Y423D01*
X7141Y400D01*
X7259D01*
X7375Y423D01*
X7484Y468D01*
X7582Y534D01*
X7666Y618D01*
X7732Y716D01*
X7777Y825D01*
X7800Y941D01*
Y1059D01*
X7777Y1175D01*
X7732Y1284D01*
X7666Y1382D01*
X7582Y1466D01*
X7484Y1532D01*
X7375Y1577D01*
X7259Y1600D01*
D02*
G37*
G36*
X4759D02*
X4641D01*
X4525Y1577D01*
X4416Y1532D01*
X4318Y1466D01*
X4234Y1382D01*
X4168Y1284D01*
X4123Y1175D01*
X4100Y1059D01*
Y941D01*
X4123Y825D01*
X4168Y716D01*
X4234Y618D01*
X4318Y534D01*
X4416Y468D01*
X4525Y423D01*
X4641Y400D01*
X4759D01*
X4875Y423D01*
X4984Y468D01*
X5082Y534D01*
X5166Y618D01*
X5232Y716D01*
X5277Y825D01*
X5300Y941D01*
Y1059D01*
X5277Y1175D01*
X5232Y1284D01*
X5166Y1382D01*
X5082Y1466D01*
X4984Y1532D01*
X4875Y1577D01*
X4759Y1600D01*
D02*
G37*
G36*
X1587Y2600D02*
X1413D01*
X1242Y2573D01*
X1078Y2519D01*
X923Y2441D01*
X783Y2339D01*
X661Y2217D01*
X559Y2077D01*
X481Y1922D01*
X427Y1758D01*
X400Y1587D01*
Y1413D01*
X427Y1242D01*
X481Y1078D01*
X559Y923D01*
X661Y783D01*
X783Y661D01*
X923Y559D01*
X1078Y481D01*
X1242Y427D01*
X1413Y400D01*
X1587D01*
X1758Y427D01*
X1922Y481D01*
X2077Y559D01*
X2217Y661D01*
X2339Y783D01*
X2441Y923D01*
X2519Y1078D01*
X2573Y1242D01*
X2600Y1413D01*
Y1587D01*
X2573Y1758D01*
X2519Y1922D01*
X2441Y2077D01*
X2339Y2217D01*
X2217Y2339D01*
X2077Y2441D01*
X1922Y2519D01*
X1758Y2573D01*
X1587Y2600D01*
D02*
G37*
%LPD*%
D21*
X23650Y12700D02*
X24950D01*
X26600Y11050D01*
X23021Y1021D02*
X23650Y1650D01*
X22500Y13850D02*
X23650Y12700D01*
Y1650D02*
Y12700D01*
X22521Y1021D02*
X23021D01*
X22500Y1000D02*
X22521Y1021D01*
X2722Y6900D02*
Y8200D01*
X5300Y10778D01*
Y12250D01*
X13000Y7500D02*
X17500Y12000D01*
X8600Y7500D02*
X13000D01*
D22*
X8600Y9350D02*
D03*
Y7500D02*
D03*
X22500Y10150D02*
D03*
Y12000D02*
D03*
X12500Y10150D02*
D03*
Y12000D02*
D03*
X17500Y10150D02*
D03*
Y12000D02*
D03*
D23*
X8600Y5650D02*
D03*
X22500Y13850D02*
D03*
X12500D02*
D03*
X17500D02*
D03*
D24*
X26600Y6700D02*
D03*
Y5350D02*
D03*
Y3950D02*
D03*
Y2600D02*
D03*
X5300Y12250D02*
D03*
X6800D02*
D03*
X2750Y9600D02*
D03*
Y11100D02*
D03*
X6700Y2750D02*
D03*
X5200D02*
D03*
X26600Y8300D02*
D03*
Y9650D02*
D03*
Y11050D02*
D03*
Y12400D02*
D03*
X2750Y5500D02*
D03*
Y4000D02*
D03*
D25*
X28600Y6050D02*
D03*
Y3250D02*
D03*
X4800Y14000D02*
D03*
X7300D02*
D03*
X1000Y9100D02*
D03*
Y11600D02*
D03*
X7200Y1000D02*
D03*
X4700D02*
D03*
X1500Y1500D02*
D03*
Y13500D02*
D03*
X28500D02*
D03*
X28450Y1500D02*
D03*
X28600Y8950D02*
D03*
Y11750D02*
D03*
X1000Y6000D02*
D03*
Y3500D02*
D03*
D26*
X22500Y8772D02*
D03*
X12500D02*
D03*
X17500D02*
D03*
D27*
X22500Y5228D02*
D03*
X12500D02*
D03*
X17500D02*
D03*
D28*
X6478Y6900D02*
D03*
X2722D02*
D03*
X6478Y8200D02*
D03*
X2722D02*
D03*
X22500Y1000D02*
D03*
X12500D02*
D03*
X17500D02*
D03*
D29*
X22500Y2000D02*
D03*
X12500D02*
D03*
X17500D02*
D03*
M02*
