M48
;Layer_Color=9474304
;FILE_FORMAT=2:4
INCH,LZ
;TYPE=PLATED
T1F00S00C0.0335
T2F00S00C0.0413
T3F00S00C0.0700
T4F00S00C0.0728
T5F00S00C0.1000
T6F00S00C0.2000
%
T01
X0125Y005228
X0175
X0225
Y008772
X0175
X0125
T02
X0125Y001
Y002
X0175
Y001
X0225
Y002
X006478Y0069
Y0082
X002722
Y0069
T03
X00275Y004
Y0055
X0052Y00275
X0067
X0266Y0026
Y00395
Y00535
Y0067
Y0083
Y00965
Y01105
Y0124
X0068Y01225
X0053
X00275Y0111
Y0096
T04
X0225Y01015
Y012
Y01385
X0175
Y012
Y01015
X0125
Y012
Y01385
X0086Y00935
Y0075
Y00565
T05
X001Y0035
X0047Y001
X0072
X0286Y00325
Y00605
Y00895
Y01175
X0073Y014
X0048
X001Y0116
Y0091
Y006
T06
X0015Y0015
X02845
X0285Y0135
X0015
M30
